<svg xmlns="http://www.w3.org/2000/svg" xmlns:xlink="http://www.w3.org/1999/xlink" width="20" height="20" viewBox="0 0 20 20"><defs><linearGradient id="a" y1="0.5" x2="1" y2="0.5" gradientUnits="objectBoundingBox"><stop offset="0" stop-color="#edbc88"/><stop offset="0.093" stop-color="#d7a241"/><stop offset="0.175" stop-color="#d8a647"/><stop offset="0.289" stop-color="#ddb159"/><stop offset="0.423" stop-color="#e6c477"/><stop offset="0.57" stop-color="#f2dfa0"/><stop offset="0.667" stop-color="#fbf3c0"/><stop offset="0.906" stop-color="#f0cd8f"/><stop offset="0.922" stop-color="#f2cc7e"/><stop offset="0.97" stop-color="#facb52"/><stop offset="0.994" stop-color="#fecb41"/></linearGradient></defs><g transform="translate(-1413 -72)"><circle cx="9.5" cy="9.5" r="9.5" transform="translate(1413.5 72.5)" fill="none" stroke="#707070" stroke-miterlimit="10" stroke-width="1"/><path d="M1427.779,78.715l-4.891,2.164a2.751,2.751,0,1,0,.667,1.509l1.622-.718.557,1.258a.275.275,0,0,0,.362.14l.5-.223a.274.274,0,0,0,.14-.363l-.556-1.257.5-.222.556,1.257a.277.277,0,0,0,.363.14l.5-.222a.275.275,0,0,0,.14-.363l-.556-1.258.754-.333a.277.277,0,0,0,.141-.363l-.445-1.006A.277.277,0,0,0,1427.779,78.715Zm-6.4,5.238a1.375,1.375,0,1,1,.7-1.813A1.379,1.379,0,0,1,1421.376,83.953Z" fill="url(#a)"/></g></svg>