<svg xmlns="http://www.w3.org/2000/svg" xmlns:xlink="http://www.w3.org/1999/xlink" width="20" height="20" viewBox="0 0 20 20"><defs><linearGradient id="a" y1="0.5" x2="1" y2="0.5" gradientUnits="objectBoundingBox"><stop offset="0" stop-color="#edbc88"/><stop offset="0.093" stop-color="#d7a241"/><stop offset="0.175" stop-color="#d8a647"/><stop offset="0.289" stop-color="#ddb159"/><stop offset="0.423" stop-color="#e6c477"/><stop offset="0.57" stop-color="#f2dfa0"/><stop offset="0.667" stop-color="#fbf3c0"/><stop offset="0.906" stop-color="#f0cd8f"/><stop offset="0.922" stop-color="#f2cc7e"/><stop offset="0.97" stop-color="#facb52"/><stop offset="0.994" stop-color="#fecb41"/></linearGradient></defs><g transform="translate(-1254.166 -71.667)"><circle cx="9.5" cy="9.5" r="9.5" transform="translate(1254.666 72.167)" fill="none" stroke="#707070" stroke-miterlimit="10" stroke-width="1"/><path d="M1266.771,74.517h-5.159a1.736,1.736,0,0,0-1.731,1.731V87.085a1.736,1.736,0,0,0,1.731,1.732h5.142a1.736,1.736,0,0,0,1.731-1.732V76.248A1.711,1.711,0,0,0,1266.771,74.517Zm-5.159,1.038h5.142a.7.7,0,0,1,.692.693v.485h-6.527v-.485A.7.7,0,0,1,1261.612,75.555Zm5.851,2.216v7.272h-6.544V77.771Zm-.692,10.007h-5.159a.7.7,0,0,1-.693-.693v-1h6.527v1A.67.67,0,0,1,1266.771,87.778Z" fill="url(#a)"/></g></svg>